<mxfile host="app.diagrams.net" modified="2024-03-18T20:42:44.877Z" agent="Mozilla/5.0 (Windows NT 10.0; Win64; x64) AppleWebKit/537.36 (KHTML, like Gecko) Chrome/122.0.0.0 Safari/537.36" etag="-7z6Zyk8_LEiMOvlYPPd" version="24.0.7" type="onedrive">
  <diagram name="Seite-1" id="YJFlSv5RaHUqurGtHIdk">
    <mxGraphModel grid="1" page="1" gridSize="10" guides="1" tooltips="1" connect="1" arrows="1" fold="1" pageScale="1" pageWidth="827" pageHeight="1169" math="0" shadow="0">
      <root>
        <mxCell id="0" />
        <mxCell id="1" parent="0" />
        <mxCell id="YP8uZfziMQtiDSNVp7Nh-5" value="" style="rounded=0;whiteSpace=wrap;html=1;fillColor=none;" vertex="1" parent="1">
          <mxGeometry x="1310" y="650" width="1370" height="620" as="geometry" />
        </mxCell>
        <mxCell id="B480e4J5-RVbsUrOAiet-15" value="" style="rounded=0;whiteSpace=wrap;html=1;fillColor=none;" vertex="1" parent="1">
          <mxGeometry x="1224" y="-440" width="430" height="990" as="geometry" />
        </mxCell>
        <mxCell id="9fxhhsQoqL0VDaIs-J9J-153" value="" style="rounded=0;whiteSpace=wrap;html=1;fillColor=none;" vertex="1" parent="1">
          <mxGeometry x="1360" y="1440" width="720" height="190" as="geometry" />
        </mxCell>
        <mxCell id="B480e4J5-RVbsUrOAiet-14" value="n" style="edgeStyle=orthogonalEdgeStyle;rounded=0;orthogonalLoop=1;jettySize=auto;html=1;exitX=0.5;exitY=1;exitDx=0;exitDy=0;entryX=0.5;entryY=0;entryDx=0;entryDy=0;" edge="1" parent="1" source="FE4Czv9uxpPWYlNPgdpB-2" target="9fxhhsQoqL0VDaIs-J9J-142">
          <mxGeometry relative="1" as="geometry" />
        </mxCell>
        <mxCell id="FE4Czv9uxpPWYlNPgdpB-2" value="" style="rounded=0;whiteSpace=wrap;html=1;fillColor=none;" vertex="1" parent="1">
          <mxGeometry x="1820" y="-440" width="670" height="350" as="geometry" />
        </mxCell>
        <mxCell id="9fxhhsQoqL0VDaIs-J9J-88" value="" style="rounded=0;whiteSpace=wrap;html=1;fillColor=none;" vertex="1" parent="1">
          <mxGeometry x="1850" y="-431" width="360" height="290" as="geometry" />
        </mxCell>
        <mxCell id="-lTzJfZ4PyQF_MlP5q2c-2" value="n" style="edgeStyle=none;curved=1;rounded=0;orthogonalLoop=1;jettySize=auto;html=1;exitX=1;exitY=0.5;exitDx=0;exitDy=0;entryX=0;entryY=0.5;entryDx=0;entryDy=0;fontSize=12;startSize=8;endSize=8;" edge="1" parent="1" source="9fxhhsQoqL0VDaIs-J9J-195" target="-lTzJfZ4PyQF_MlP5q2c-1">
          <mxGeometry relative="1" as="geometry" />
        </mxCell>
        <mxCell id="9fxhhsQoqL0VDaIs-J9J-195" value="" style="rounded=0;whiteSpace=wrap;html=1;fillColor=none;" vertex="1" parent="1">
          <mxGeometry x="1360" y="1660" width="350" height="120" as="geometry" />
        </mxCell>
        <mxCell id="9fxhhsQoqL0VDaIs-J9J-189" value="" style="rounded=0;whiteSpace=wrap;html=1;fillColor=none;" vertex="1" parent="1">
          <mxGeometry x="1408" y="1490" width="610" height="110" as="geometry" />
        </mxCell>
        <mxCell id="9fxhhsQoqL0VDaIs-J9J-151" value="n" style="edgeStyle=orthogonalEdgeStyle;rounded=0;orthogonalLoop=1;jettySize=auto;html=1;exitX=1.002;exitY=0.163;exitDx=0;exitDy=0;entryX=0;entryY=0.5;entryDx=0;entryDy=0;exitPerimeter=0;" edge="1" parent="1" source="9fxhhsQoqL0VDaIs-J9J-148" target="9fxhhsQoqL0VDaIs-J9J-150">
          <mxGeometry relative="1" as="geometry" />
        </mxCell>
        <mxCell id="9fxhhsQoqL0VDaIs-J9J-148" value="" style="rounded=0;whiteSpace=wrap;html=1;fillColor=none;" vertex="1" parent="1">
          <mxGeometry x="1330" y="840" width="930" height="400" as="geometry" />
        </mxCell>
        <mxCell id="B480e4J5-RVbsUrOAiet-1" value="n" style="edgeStyle=orthogonalEdgeStyle;rounded=0;orthogonalLoop=1;jettySize=auto;html=1;exitX=0.5;exitY=0;exitDx=0;exitDy=0;entryX=0.5;entryY=1;entryDx=0;entryDy=0;" edge="1" parent="1" source="9fxhhsQoqL0VDaIs-J9J-119" target="9fxhhsQoqL0VDaIs-J9J-120">
          <mxGeometry relative="1" as="geometry" />
        </mxCell>
        <mxCell id="9fxhhsQoqL0VDaIs-J9J-119" value="" style="rounded=0;whiteSpace=wrap;html=1;fillColor=none;" vertex="1" parent="1">
          <mxGeometry x="3003" y="-390" width="430" height="230" as="geometry" />
        </mxCell>
        <mxCell id="B480e4J5-RVbsUrOAiet-13" value="n" style="edgeStyle=orthogonalEdgeStyle;rounded=0;orthogonalLoop=1;jettySize=auto;html=1;exitX=0.5;exitY=0;exitDx=0;exitDy=0;entryX=0.5;entryY=1;entryDx=0;entryDy=0;" edge="1" parent="1" source="9fxhhsQoqL0VDaIs-J9J-116" target="9fxhhsQoqL0VDaIs-J9J-117">
          <mxGeometry relative="1" as="geometry" />
        </mxCell>
        <mxCell id="9fxhhsQoqL0VDaIs-J9J-116" value="" style="rounded=0;whiteSpace=wrap;html=1;fillColor=none;" vertex="1" parent="1">
          <mxGeometry x="1820" y="320" width="670" height="235" as="geometry" />
        </mxCell>
        <mxCell id="9fxhhsQoqL0VDaIs-J9J-107" value="" style="rounded=0;whiteSpace=wrap;html=1;fillColor=none;" vertex="1" parent="1">
          <mxGeometry x="2030" y="335" width="380" height="190" as="geometry" />
        </mxCell>
        <mxCell id="9fxhhsQoqL0VDaIs-J9J-50" value="c" style="edgeStyle=orthogonalEdgeStyle;rounded=0;orthogonalLoop=1;jettySize=auto;html=1;exitX=1;exitY=0.5;exitDx=0;exitDy=0;entryX=0;entryY=0.5;entryDx=0;entryDy=0;" edge="1" parent="1" source="9fxhhsQoqL0VDaIs-J9J-44" target="9fxhhsQoqL0VDaIs-J9J-45">
          <mxGeometry relative="1" as="geometry" />
        </mxCell>
        <mxCell id="9fxhhsQoqL0VDaIs-J9J-97" value="p" style="edgeStyle=orthogonalEdgeStyle;rounded=0;orthogonalLoop=1;jettySize=auto;html=1;exitX=0.5;exitY=0;exitDx=0;exitDy=0;entryX=0.5;entryY=1;entryDx=0;entryDy=0;startArrow=classic;startFill=1;" edge="1" parent="1" source="9fxhhsQoqL0VDaIs-J9J-44" target="9fxhhsQoqL0VDaIs-J9J-46">
          <mxGeometry relative="1" as="geometry" />
        </mxCell>
        <mxCell id="9fxhhsQoqL0VDaIs-J9J-44" value="Covert Stage" style="rounded=0;whiteSpace=wrap;html=1;" vertex="1" parent="1">
          <mxGeometry x="2060" y="-241" width="120" height="60" as="geometry" />
        </mxCell>
        <mxCell id="9fxhhsQoqL0VDaIs-J9J-45" value="Overt Stage" style="rounded=0;whiteSpace=wrap;html=1;" vertex="1" parent="1">
          <mxGeometry x="2350" y="-241" width="120" height="60" as="geometry" />
        </mxCell>
        <mxCell id="9fxhhsQoqL0VDaIs-J9J-94" value="p" style="edgeStyle=orthogonalEdgeStyle;rounded=0;orthogonalLoop=1;jettySize=auto;html=1;exitX=0;exitY=0.5;exitDx=0;exitDy=0;entryX=1;entryY=0.5;entryDx=0;entryDy=0;" edge="1" parent="1" source="9fxhhsQoqL0VDaIs-J9J-46" target="9fxhhsQoqL0VDaIs-J9J-52">
          <mxGeometry relative="1" as="geometry" />
        </mxCell>
        <mxCell id="9fxhhsQoqL0VDaIs-J9J-46" value="Motor system activation" style="rounded=0;whiteSpace=wrap;html=1;" vertex="1" parent="1">
          <mxGeometry x="2060" y="-391" width="120" height="60" as="geometry" />
        </mxCell>
        <mxCell id="9fxhhsQoqL0VDaIs-J9J-52" value="functional equivalence" style="rounded=0;whiteSpace=wrap;html=1;" vertex="1" parent="1">
          <mxGeometry x="1890" y="-391" width="120" height="60" as="geometry" />
        </mxCell>
        <mxCell id="9fxhhsQoqL0VDaIs-J9J-56" value="n" style="edgeStyle=orthogonalEdgeStyle;rounded=0;orthogonalLoop=1;jettySize=auto;html=1;exitX=1;exitY=0.5;exitDx=0;exitDy=0;entryX=0;entryY=0.5;entryDx=0;entryDy=0;" edge="1" parent="1" source="9fxhhsQoqL0VDaIs-J9J-54" target="9fxhhsQoqL0VDaIs-J9J-55">
          <mxGeometry relative="1" as="geometry" />
        </mxCell>
        <mxCell id="9fxhhsQoqL0VDaIs-J9J-54" value="Covert Stage" style="rounded=0;whiteSpace=wrap;html=1;" vertex="1" parent="1">
          <mxGeometry x="1261" y="-30" width="120" height="60" as="geometry" />
        </mxCell>
        <mxCell id="9fxhhsQoqL0VDaIs-J9J-55" value="&quot;a representation of the future,&lt;br&gt;which includes the goal of the action, the means to&lt;br&gt;reach it, and its consequences on the organism and the&lt;br&gt;external world&quot; [Jeannerod]" style="rounded=0;whiteSpace=wrap;html=1;" vertex="1" parent="1">
          <mxGeometry x="1441" y="-70" width="180" height="140" as="geometry" />
        </mxCell>
        <mxCell id="9fxhhsQoqL0VDaIs-J9J-85" value="n" style="edgeStyle=orthogonalEdgeStyle;rounded=0;orthogonalLoop=1;jettySize=auto;html=1;exitX=1;exitY=0.5;exitDx=0;exitDy=0;entryX=0;entryY=0.5;entryDx=0;entryDy=0;" edge="1" parent="1" source="9fxhhsQoqL0VDaIs-J9J-61" target="9fxhhsQoqL0VDaIs-J9J-81">
          <mxGeometry relative="1" as="geometry" />
        </mxCell>
        <mxCell id="9fxhhsQoqL0VDaIs-J9J-61" value="Motor system activation" style="rounded=0;whiteSpace=wrap;html=1;" vertex="1" parent="1">
          <mxGeometry x="1259" y="-371" width="120" height="60" as="geometry" />
        </mxCell>
        <mxCell id="9fxhhsQoqL0VDaIs-J9J-62" value="Motor imagery" style="rounded=0;whiteSpace=wrap;html=1;" vertex="1" parent="1">
          <mxGeometry x="1261" y="-190" width="130" height="60" as="geometry" />
        </mxCell>
        <mxCell id="9fxhhsQoqL0VDaIs-J9J-63" value="Overt Stage" style="rounded=0;whiteSpace=wrap;html=1;" vertex="1" parent="1">
          <mxGeometry x="1261" y="140" width="120" height="60" as="geometry" />
        </mxCell>
        <mxCell id="9fxhhsQoqL0VDaIs-J9J-64" value="functional equivalence" style="rounded=0;whiteSpace=wrap;html=1;" vertex="1" parent="1">
          <mxGeometry x="1261" y="430" width="120" height="60" as="geometry" />
        </mxCell>
        <mxCell id="9fxhhsQoqL0VDaIs-J9J-71" value="Inhibition" style="edgeStyle=orthogonalEdgeStyle;rounded=0;orthogonalLoop=1;jettySize=auto;html=1;exitX=0.5;exitY=1;exitDx=0;exitDy=0;entryX=0.5;entryY=1;entryDx=0;entryDy=0;" edge="1" parent="1">
          <mxGeometry relative="1" as="geometry">
            <mxPoint x="1050" y="1240" as="targetPoint" />
          </mxGeometry>
        </mxCell>
        <mxCell id="9fxhhsQoqL0VDaIs-J9J-79" value="&quot;The motor execution of the represented action in the covert stage&quot;" style="rounded=0;whiteSpace=wrap;html=1;" vertex="1" parent="1">
          <mxGeometry x="1441" y="120" width="180" height="80" as="geometry" />
        </mxCell>
        <mxCell id="9fxhhsQoqL0VDaIs-J9J-80" value="n" style="edgeStyle=orthogonalEdgeStyle;rounded=0;orthogonalLoop=1;jettySize=auto;html=1;exitX=1;exitY=0.5;exitDx=0;exitDy=0;" edge="1" parent="1" source="9fxhhsQoqL0VDaIs-J9J-63">
          <mxGeometry relative="1" as="geometry">
            <mxPoint x="1441" y="170" as="targetPoint" />
          </mxGeometry>
        </mxCell>
        <mxCell id="9fxhhsQoqL0VDaIs-J9J-81" value="&quot;Activation of neural correlates in the motor system associated with action representation and correlated with action execution&quot;" style="rounded=0;whiteSpace=wrap;html=1;" vertex="1" parent="1">
          <mxGeometry x="1441" y="-410" width="180" height="140" as="geometry" />
        </mxCell>
        <mxCell id="9fxhhsQoqL0VDaIs-J9J-82" value="&quot;Functional overlap in motor system activation between the motor imagery and the Overt state of a task&quot;&amp;nbsp;" style="rounded=0;whiteSpace=wrap;html=1;" vertex="1" parent="1">
          <mxGeometry x="1441" y="400" width="180" height="100" as="geometry" />
        </mxCell>
        <mxCell id="9fxhhsQoqL0VDaIs-J9J-83" value="n" style="edgeStyle=orthogonalEdgeStyle;rounded=0;orthogonalLoop=1;jettySize=auto;html=1;exitX=1;exitY=0.5;exitDx=0;exitDy=0;entryX=0.003;entryY=0.6;entryDx=0;entryDy=0;entryPerimeter=0;" edge="1" parent="1" source="9fxhhsQoqL0VDaIs-J9J-64" target="9fxhhsQoqL0VDaIs-J9J-82">
          <mxGeometry relative="1" as="geometry" />
        </mxCell>
        <mxCell id="9fxhhsQoqL0VDaIs-J9J-91" value="Motor imagery" style="text;html=1;strokeColor=none;fillColor=none;align=center;verticalAlign=middle;whiteSpace=wrap;rounded=0;" vertex="1" parent="1">
          <mxGeometry x="1850" y="-141" width="60" height="30" as="geometry" />
        </mxCell>
        <mxCell id="9fxhhsQoqL0VDaIs-J9J-99" value="Motor system activation" style="rounded=0;whiteSpace=wrap;html=1;" vertex="1" parent="1">
          <mxGeometry x="3113" y="-370" width="120" height="60" as="geometry" />
        </mxCell>
        <mxCell id="9fxhhsQoqL0VDaIs-J9J-104" value="c" style="edgeStyle=orthogonalEdgeStyle;rounded=0;orthogonalLoop=1;jettySize=auto;html=1;exitX=1;exitY=0.5;exitDx=0;exitDy=0;entryX=0;entryY=0.5;entryDx=0;entryDy=0;" edge="1" parent="1" source="9fxhhsQoqL0VDaIs-J9J-101" target="9fxhhsQoqL0VDaIs-J9J-102">
          <mxGeometry relative="1" as="geometry" />
        </mxCell>
        <mxCell id="9fxhhsQoqL0VDaIs-J9J-105" value="p" style="edgeStyle=orthogonalEdgeStyle;rounded=0;orthogonalLoop=1;jettySize=auto;html=1;exitX=0.5;exitY=0;exitDx=0;exitDy=0;startArrow=classic;startFill=1;" edge="1" parent="1" source="9fxhhsQoqL0VDaIs-J9J-101" target="9fxhhsQoqL0VDaIs-J9J-99">
          <mxGeometry relative="1" as="geometry" />
        </mxCell>
        <mxCell id="9fxhhsQoqL0VDaIs-J9J-101" value="Covert State" style="rounded=0;whiteSpace=wrap;html=1;" vertex="1" parent="1">
          <mxGeometry x="3113" y="-260" width="120" height="60" as="geometry" />
        </mxCell>
        <mxCell id="9fxhhsQoqL0VDaIs-J9J-102" value="Overt State" style="rounded=0;whiteSpace=wrap;html=1;" vertex="1" parent="1">
          <mxGeometry x="3293" y="-260" width="120" height="60" as="geometry" />
        </mxCell>
        <mxCell id="9fxhhsQoqL0VDaIs-J9J-115" value="1" style="edgeStyle=orthogonalEdgeStyle;rounded=0;orthogonalLoop=1;jettySize=auto;html=1;exitX=1;exitY=0.5;exitDx=0;exitDy=0;entryX=0;entryY=0.25;entryDx=0;entryDy=0;startArrow=classic;startFill=1;" edge="1" parent="1" source="9fxhhsQoqL0VDaIs-J9J-106" target="9fxhhsQoqL0VDaIs-J9J-107">
          <mxGeometry relative="1" as="geometry" />
        </mxCell>
        <mxCell id="9fxhhsQoqL0VDaIs-J9J-106" value="Motor imagery" style="rounded=0;whiteSpace=wrap;html=1;" vertex="1" parent="1">
          <mxGeometry x="1830" y="350" width="120" height="65" as="geometry" />
        </mxCell>
        <mxCell id="B480e4J5-RVbsUrOAiet-11" value="1" style="edgeStyle=orthogonalEdgeStyle;rounded=0;orthogonalLoop=1;jettySize=auto;html=1;exitX=1;exitY=0.25;exitDx=0;exitDy=0;entryX=0;entryY=0.25;entryDx=0;entryDy=0;" edge="1" parent="1" source="9fxhhsQoqL0VDaIs-J9J-108" target="B480e4J5-RVbsUrOAiet-9">
          <mxGeometry relative="1" as="geometry" />
        </mxCell>
        <mxCell id="9fxhhsQoqL0VDaIs-J9J-108" value="IS" style="verticalLabelPosition=middle;verticalAlign=middle;html=1;shape=hexagon;perimeter=hexagonPerimeter2;arcSize=6;size=0.21739130434782608;align=center;labelPosition=center;" vertex="1" parent="1">
          <mxGeometry x="2190" y="410" width="46" height="30" as="geometry" />
        </mxCell>
        <mxCell id="9fxhhsQoqL0VDaIs-J9J-109" value="Covert State" style="rounded=0;whiteSpace=wrap;html=1;" vertex="1" parent="1">
          <mxGeometry x="2047" y="355" width="120" height="60" as="geometry" />
        </mxCell>
        <mxCell id="9fxhhsQoqL0VDaIs-J9J-110" value="Motor system activation" style="rounded=0;whiteSpace=wrap;html=1;" vertex="1" parent="1">
          <mxGeometry x="2047" y="440" width="120" height="60" as="geometry" />
        </mxCell>
        <mxCell id="9fxhhsQoqL0VDaIs-J9J-113" value="1" style="endArrow=none;html=1;rounded=0;entryX=1;entryY=0.5;entryDx=0;entryDy=0;exitX=0.204;exitY=0.054;exitDx=0;exitDy=0;exitPerimeter=0;" edge="1" parent="1" source="9fxhhsQoqL0VDaIs-J9J-108" target="9fxhhsQoqL0VDaIs-J9J-109">
          <mxGeometry width="50" height="50" relative="1" as="geometry">
            <mxPoint x="2100" y="415" as="sourcePoint" />
            <mxPoint x="2150" y="365" as="targetPoint" />
          </mxGeometry>
        </mxCell>
        <mxCell id="9fxhhsQoqL0VDaIs-J9J-114" value="1" style="endArrow=none;html=1;rounded=0;entryX=1;entryY=0.5;entryDx=0;entryDy=0;exitX=0.221;exitY=0.995;exitDx=0;exitDy=0;exitPerimeter=0;" edge="1" parent="1" source="9fxhhsQoqL0VDaIs-J9J-108" target="9fxhhsQoqL0VDaIs-J9J-110">
          <mxGeometry width="50" height="50" relative="1" as="geometry">
            <mxPoint x="2209" y="422" as="sourcePoint" />
            <mxPoint x="2177" y="395" as="targetPoint" />
          </mxGeometry>
        </mxCell>
        <mxCell id="9fxhhsQoqL0VDaIs-J9J-117" value="&quot;The existence of the covert state and its action representation content as well as the neural motor system activation and the Inhibition of overt action are necessary for the existence of motor imagery&quot;" style="rounded=0;whiteSpace=wrap;html=1;" vertex="1" parent="1">
          <mxGeometry x="2055" y="140" width="199.5" height="130" as="geometry" />
        </mxCell>
        <mxCell id="9fxhhsQoqL0VDaIs-J9J-120" value="&quot;Real action interaction of the covert-overt state continuum&quot;&amp;nbsp;" style="rounded=0;whiteSpace=wrap;html=1;" vertex="1" parent="1">
          <mxGeometry x="3123" y="-550" width="190" height="70" as="geometry" />
        </mxCell>
        <mxCell id="9fxhhsQoqL0VDaIs-J9J-122" value="&quot;Motor imagery is a dynamic mental state during which the representation of a given motor movement is rehearsed in working memory without overt motor output.&quot;&amp;nbsp;" style="rounded=0;whiteSpace=wrap;html=1;" vertex="1" parent="1">
          <mxGeometry x="1441" y="-230" width="180" height="110" as="geometry" />
        </mxCell>
        <mxCell id="9fxhhsQoqL0VDaIs-J9J-123" value="n" style="edgeStyle=orthogonalEdgeStyle;rounded=0;orthogonalLoop=1;jettySize=auto;html=1;exitX=1;exitY=0.5;exitDx=0;exitDy=0;entryX=0;entryY=0.636;entryDx=0;entryDy=0;entryPerimeter=0;" edge="1" parent="1" source="9fxhhsQoqL0VDaIs-J9J-62" target="9fxhhsQoqL0VDaIs-J9J-122">
          <mxGeometry relative="1" as="geometry">
            <mxPoint x="1431" y="-158" as="targetPoint" />
          </mxGeometry>
        </mxCell>
        <mxCell id="9fxhhsQoqL0VDaIs-J9J-128" value="n" style="edgeStyle=orthogonalEdgeStyle;rounded=0;orthogonalLoop=1;jettySize=auto;html=1;exitX=1;exitY=0.5;exitDx=0;exitDy=0;entryX=0;entryY=0.5;entryDx=0;entryDy=0;" edge="1" parent="1" source="9fxhhsQoqL0VDaIs-J9J-124" target="9fxhhsQoqL0VDaIs-J9J-125">
          <mxGeometry relative="1" as="geometry" />
        </mxCell>
        <mxCell id="9fxhhsQoqL0VDaIs-J9J-124" value="mental practice" style="rounded=0;whiteSpace=wrap;html=1;" vertex="1" parent="1">
          <mxGeometry x="2290" y="1020" width="120" height="60" as="geometry" />
        </mxCell>
        <mxCell id="9fxhhsQoqL0VDaIs-J9J-125" value="&quot;mental practice is the systematic application of MI for the cognitive rehearsal of a task in the absence of overt physical movements&quot;" style="rounded=0;whiteSpace=wrap;html=1;" vertex="1" parent="1">
          <mxGeometry x="2470" y="1010" width="180" height="80" as="geometry" />
        </mxCell>
        <mxCell id="9fxhhsQoqL0VDaIs-J9J-129" value="" style="rounded=0;whiteSpace=wrap;html=1;fillColor=none;" vertex="1" parent="1">
          <mxGeometry x="1380" y="870" width="680" height="290" as="geometry" />
        </mxCell>
        <mxCell id="9fxhhsQoqL0VDaIs-J9J-130" value="c" style="edgeStyle=orthogonalEdgeStyle;rounded=0;orthogonalLoop=1;jettySize=auto;html=1;exitX=1;exitY=0.5;exitDx=0;exitDy=0;entryX=0;entryY=0.5;entryDx=0;entryDy=0;" edge="1" parent="1" source="9fxhhsQoqL0VDaIs-J9J-132" target="9fxhhsQoqL0VDaIs-J9J-133">
          <mxGeometry relative="1" as="geometry" />
        </mxCell>
        <mxCell id="9fxhhsQoqL0VDaIs-J9J-131" value="p" style="edgeStyle=orthogonalEdgeStyle;rounded=0;orthogonalLoop=1;jettySize=auto;html=1;exitX=0.5;exitY=0;exitDx=0;exitDy=0;entryX=0.5;entryY=1;entryDx=0;entryDy=0;startArrow=classic;startFill=1;" edge="1" parent="1" source="9fxhhsQoqL0VDaIs-J9J-132" target="9fxhhsQoqL0VDaIs-J9J-135">
          <mxGeometry relative="1" as="geometry" />
        </mxCell>
        <mxCell id="9fxhhsQoqL0VDaIs-J9J-132" value="Covert Stage" style="rounded=0;whiteSpace=wrap;html=1;" vertex="1" parent="1">
          <mxGeometry x="1580" y="1070" width="120" height="60" as="geometry" />
        </mxCell>
        <mxCell id="9fxhhsQoqL0VDaIs-J9J-133" value="Overt Stage" style="rounded=0;whiteSpace=wrap;html=1;" vertex="1" parent="1">
          <mxGeometry x="2110" y="1070" width="120" height="60" as="geometry" />
        </mxCell>
        <mxCell id="9fxhhsQoqL0VDaIs-J9J-134" value="t" style="edgeStyle=orthogonalEdgeStyle;rounded=0;orthogonalLoop=1;jettySize=auto;html=1;exitX=0;exitY=0.5;exitDx=0;exitDy=0;entryX=1;entryY=0.5;entryDx=0;entryDy=0;" edge="1" parent="1" source="9fxhhsQoqL0VDaIs-J9J-135" target="9fxhhsQoqL0VDaIs-J9J-139">
          <mxGeometry relative="1" as="geometry" />
        </mxCell>
        <mxCell id="9fxhhsQoqL0VDaIs-J9J-144" value="&lt;b&gt;Hebbian learning&lt;/b&gt;" style="edgeStyle=orthogonalEdgeStyle;rounded=0;orthogonalLoop=1;jettySize=auto;html=1;exitX=1;exitY=0.5;exitDx=0;exitDy=0;entryX=0;entryY=0.5;entryDx=0;entryDy=0;" edge="1" parent="1" source="9fxhhsQoqL0VDaIs-J9J-135" target="9fxhhsQoqL0VDaIs-J9J-147">
          <mxGeometry x="-0.0044" relative="1" as="geometry">
            <mxPoint x="1750" y="949.9999999999995" as="targetPoint" />
            <mxPoint as="offset" />
          </mxGeometry>
        </mxCell>
        <mxCell id="9fxhhsQoqL0VDaIs-J9J-135" value="Motor system activation" style="rounded=0;whiteSpace=wrap;html=1;" vertex="1" parent="1">
          <mxGeometry x="1580" y="920" width="120" height="60" as="geometry" />
        </mxCell>
        <mxCell id="9fxhhsQoqL0VDaIs-J9J-139" value="functional equivalence" style="rounded=0;whiteSpace=wrap;html=1;" vertex="1" parent="1">
          <mxGeometry x="1410" y="920" width="120" height="60" as="geometry" />
        </mxCell>
        <mxCell id="9fxhhsQoqL0VDaIs-J9J-140" value="Mental practice" style="text;html=1;strokeColor=none;fillColor=none;align=center;verticalAlign=middle;whiteSpace=wrap;rounded=0;" vertex="1" parent="1">
          <mxGeometry x="1370" y="1170" width="60" height="30" as="geometry" />
        </mxCell>
        <mxCell id="9fxhhsQoqL0VDaIs-J9J-142" value="&lt;font style=&quot;font-size: 18px;&quot;&gt;&quot;motor simulation theory encompassing all crucial constructs&quot;&lt;/font&gt;" style="rounded=0;whiteSpace=wrap;html=1;" vertex="1" parent="1">
          <mxGeometry x="2055.5" y="-30" width="199" height="125" as="geometry" />
        </mxCell>
        <mxCell id="9fxhhsQoqL0VDaIs-J9J-147" value="performance improvement&amp;nbsp;" style="rounded=0;whiteSpace=wrap;html=1;" vertex="1" parent="1">
          <mxGeometry x="1925" y="920" width="120" height="60" as="geometry" />
        </mxCell>
        <mxCell id="9fxhhsQoqL0VDaIs-J9J-150" value="&quot;Motor simulations theorys explanation of mental practices effect on motor performance. Showing the process of Hebbian Learning during MI&quot;" style="rounded=0;whiteSpace=wrap;html=1;" vertex="1" parent="1">
          <mxGeometry x="2330" y="840" width="190" height="130" as="geometry" />
        </mxCell>
        <mxCell id="9fxhhsQoqL0VDaIs-J9J-152" value="n" style="edgeStyle=orthogonalEdgeStyle;rounded=0;orthogonalLoop=1;jettySize=auto;html=1;exitX=1.003;exitY=0.343;exitDx=0;exitDy=0;entryX=0;entryY=0.5;entryDx=0;entryDy=0;exitPerimeter=0;" edge="1" parent="1" source="9fxhhsQoqL0VDaIs-J9J-153" target="9fxhhsQoqL0VDaIs-J9J-168">
          <mxGeometry relative="1" as="geometry" />
        </mxCell>
        <mxCell id="9fxhhsQoqL0VDaIs-J9J-169" value="Actualization" style="edgeStyle=orthogonalEdgeStyle;rounded=0;orthogonalLoop=1;jettySize=auto;html=1;exitX=1;exitY=0.5;exitDx=0;exitDy=0;" edge="1" parent="1" source="9fxhhsQoqL0VDaIs-J9J-163">
          <mxGeometry relative="1" as="geometry">
            <mxPoint x="1828" y="1590" as="targetPoint" />
          </mxGeometry>
        </mxCell>
        <mxCell id="9fxhhsQoqL0VDaIs-J9J-163" value="functional equivalence" style="rounded=0;whiteSpace=wrap;html=1;" vertex="1" parent="1">
          <mxGeometry x="1638" y="1510" width="120" height="60" as="geometry" />
        </mxCell>
        <mxCell id="9fxhhsQoqL0VDaIs-J9J-167" value="post motor performance&amp;nbsp;" style="rounded=0;whiteSpace=wrap;html=1;" vertex="1" parent="1">
          <mxGeometry x="1865" y="1510" width="120" height="60" as="geometry" />
        </mxCell>
        <mxCell id="9fxhhsQoqL0VDaIs-J9J-168" value="&quot;Formal model of MST explanation of mental practices effect on motor performance&quot;" style="rounded=0;whiteSpace=wrap;html=1;" vertex="1" parent="1">
          <mxGeometry x="2167" y="1440" width="190" height="130" as="geometry" />
        </mxCell>
        <mxCell id="9fxhhsQoqL0VDaIs-J9J-188" value="Expertise level" style="edgeStyle=orthogonalEdgeStyle;rounded=0;orthogonalLoop=1;jettySize=auto;html=1;exitX=1;exitY=0.5;exitDx=0;exitDy=0;entryX=0;entryY=0.5;entryDx=0;entryDy=0;" edge="1" parent="1" source="9fxhhsQoqL0VDaIs-J9J-187" target="9fxhhsQoqL0VDaIs-J9J-163">
          <mxGeometry relative="1" as="geometry" />
        </mxCell>
        <mxCell id="FE4Czv9uxpPWYlNPgdpB-1" value="Law of practice" style="edgeStyle=orthogonalEdgeStyle;rounded=0;orthogonalLoop=1;jettySize=auto;html=1;exitX=0.75;exitY=1;exitDx=0;exitDy=0;entryX=0.25;entryY=1;entryDx=0;entryDy=0;" edge="1" parent="1" source="9fxhhsQoqL0VDaIs-J9J-187" target="9fxhhsQoqL0VDaIs-J9J-167">
          <mxGeometry relative="1" as="geometry" />
        </mxCell>
        <mxCell id="9fxhhsQoqL0VDaIs-J9J-187" value="baseline motor performance&amp;nbsp;" style="rounded=0;whiteSpace=wrap;html=1;" vertex="1" parent="1">
          <mxGeometry x="1428" y="1510" width="120" height="60" as="geometry" />
        </mxCell>
        <mxCell id="9fxhhsQoqL0VDaIs-J9J-190" value="mental practice" style="text;html=1;strokeColor=none;fillColor=none;align=center;verticalAlign=middle;whiteSpace=wrap;rounded=0;" vertex="1" parent="1">
          <mxGeometry x="1408" y="1600" width="100" height="30" as="geometry" />
        </mxCell>
        <mxCell id="9fxhhsQoqL0VDaIs-J9J-194" value="Law&amp;nbsp;&lt;br&gt;of&lt;br&gt;Practice" style="edgeStyle=orthogonalEdgeStyle;rounded=0;orthogonalLoop=1;jettySize=auto;html=1;exitX=1;exitY=0.5;exitDx=0;exitDy=0;" edge="1" parent="1" source="9fxhhsQoqL0VDaIs-J9J-192" target="9fxhhsQoqL0VDaIs-J9J-193">
          <mxGeometry relative="1" as="geometry" />
        </mxCell>
        <mxCell id="9fxhhsQoqL0VDaIs-J9J-192" value="pre motor performance&amp;nbsp;" style="rounded=0;whiteSpace=wrap;html=1;" vertex="1" parent="1">
          <mxGeometry x="1380" y="1690" width="120" height="60" as="geometry" />
        </mxCell>
        <mxCell id="9fxhhsQoqL0VDaIs-J9J-193" value="post motor performance&amp;nbsp;" style="rounded=0;whiteSpace=wrap;html=1;" vertex="1" parent="1">
          <mxGeometry x="1560" y="1690" width="120" height="60" as="geometry" />
        </mxCell>
        <mxCell id="9fxhhsQoqL0VDaIs-J9J-196" value="real practice" style="text;html=1;strokeColor=none;fillColor=none;align=center;verticalAlign=middle;whiteSpace=wrap;rounded=0;" vertex="1" parent="1">
          <mxGeometry x="1350" y="1750" width="150" height="30" as="geometry" />
        </mxCell>
        <mxCell id="-ai7pCBg0MR6IYpsPyB2-5" value="n" style="edgeStyle=orthogonalEdgeStyle;rounded=0;orthogonalLoop=1;jettySize=auto;html=1;exitX=1;exitY=0.5;exitDx=0;exitDy=0;entryX=0;entryY=0.5;entryDx=0;entryDy=0;" edge="1" parent="1" source="-ai7pCBg0MR6IYpsPyB2-6" target="-ai7pCBg0MR6IYpsPyB2-7">
          <mxGeometry relative="1" as="geometry" />
        </mxCell>
        <mxCell id="-ai7pCBg0MR6IYpsPyB2-6" value="performance improvement" style="rounded=0;whiteSpace=wrap;html=1;" vertex="1" parent="1">
          <mxGeometry x="2290" y="1160" width="120" height="60" as="geometry" />
        </mxCell>
        <mxCell id="-ai7pCBg0MR6IYpsPyB2-7" value="&quot;The measurable improvement in distance, time or other scoring system reflecting performance in a motor task&quot;" style="rounded=0;whiteSpace=wrap;html=1;" vertex="1" parent="1">
          <mxGeometry x="2470" y="1150" width="180" height="80" as="geometry" />
        </mxCell>
        <mxCell id="-ai7pCBg0MR6IYpsPyB2-8" value="n" style="edgeStyle=orthogonalEdgeStyle;rounded=0;orthogonalLoop=1;jettySize=auto;html=1;exitX=1;exitY=0.5;exitDx=0;exitDy=0;entryX=0;entryY=0.5;entryDx=0;entryDy=0;" edge="1" parent="1" source="-ai7pCBg0MR6IYpsPyB2-9" target="-ai7pCBg0MR6IYpsPyB2-10">
          <mxGeometry relative="1" as="geometry" />
        </mxCell>
        <mxCell id="-ai7pCBg0MR6IYpsPyB2-9" value="baseline motor performance" style="rounded=0;whiteSpace=wrap;html=1;" vertex="1" parent="1">
          <mxGeometry x="2000" y="1650" width="120" height="60" as="geometry" />
        </mxCell>
        <mxCell id="-ai7pCBg0MR6IYpsPyB2-10" value="&quot;Motor performance before practice&quot;" style="rounded=0;whiteSpace=wrap;html=1;" vertex="1" parent="1">
          <mxGeometry x="2180" y="1640" width="180" height="80" as="geometry" />
        </mxCell>
        <mxCell id="-ai7pCBg0MR6IYpsPyB2-11" value="n" style="edgeStyle=orthogonalEdgeStyle;rounded=0;orthogonalLoop=1;jettySize=auto;html=1;exitX=1;exitY=0.5;exitDx=0;exitDy=0;entryX=0;entryY=0.5;entryDx=0;entryDy=0;" edge="1" parent="1" source="-ai7pCBg0MR6IYpsPyB2-12" target="-ai7pCBg0MR6IYpsPyB2-13">
          <mxGeometry relative="1" as="geometry" />
        </mxCell>
        <mxCell id="-ai7pCBg0MR6IYpsPyB2-12" value="post motor performance" style="rounded=0;whiteSpace=wrap;html=1;" vertex="1" parent="1">
          <mxGeometry x="2000" y="1740" width="120" height="60" as="geometry" />
        </mxCell>
        <mxCell id="-ai7pCBg0MR6IYpsPyB2-13" value="&quot;Motor performance after iterations of practice&quot;" style="rounded=0;whiteSpace=wrap;html=1;" vertex="1" parent="1">
          <mxGeometry x="2180" y="1730" width="180" height="80" as="geometry" />
        </mxCell>
        <mxCell id="-ai7pCBg0MR6IYpsPyB2-15" value="c" style="edgeStyle=orthogonalEdgeStyle;rounded=0;orthogonalLoop=1;jettySize=auto;html=1;exitX=0.5;exitY=1;exitDx=0;exitDy=0;entryX=0.5;entryY=1;entryDx=0;entryDy=0;" edge="1" parent="1" source="-ai7pCBg0MR6IYpsPyB2-14" target="9fxhhsQoqL0VDaIs-J9J-45">
          <mxGeometry relative="1" as="geometry" />
        </mxCell>
        <mxCell id="-ai7pCBg0MR6IYpsPyB2-14" value="Inhibition" style="rounded=0;whiteSpace=wrap;html=1;" vertex="1" parent="1">
          <mxGeometry x="1880" y="-241" width="120" height="60" as="geometry" />
        </mxCell>
        <mxCell id="-ai7pCBg0MR6IYpsPyB2-18" value="n" style="edgeStyle=orthogonalEdgeStyle;rounded=0;orthogonalLoop=1;jettySize=auto;html=1;exitX=1;exitY=0.5;exitDx=0;exitDy=0;entryX=0;entryY=0.5;entryDx=0;entryDy=0;" edge="1" parent="1" source="-ai7pCBg0MR6IYpsPyB2-16" target="-ai7pCBg0MR6IYpsPyB2-17">
          <mxGeometry relative="1" as="geometry" />
        </mxCell>
        <mxCell id="-ai7pCBg0MR6IYpsPyB2-16" value="inhibition" style="rounded=0;whiteSpace=wrap;html=1;" vertex="1" parent="1">
          <mxGeometry x="1261" y="270" width="120" height="60" as="geometry" />
        </mxCell>
        <mxCell id="-ai7pCBg0MR6IYpsPyB2-17" value="&quot;inhibitory mechanism employed during motor imagery&quot;" style="rounded=0;whiteSpace=wrap;html=1;" vertex="1" parent="1">
          <mxGeometry x="1441" y="260" width="180" height="80" as="geometry" />
        </mxCell>
        <mxCell id="B480e4J5-RVbsUrOAiet-4" value="p" style="edgeStyle=orthogonalEdgeStyle;rounded=0;orthogonalLoop=1;jettySize=auto;html=1;exitX=0.5;exitY=1;exitDx=0;exitDy=0;entryX=0.5;entryY=1;entryDx=0;entryDy=0;" edge="1" parent="1" source="B480e4J5-RVbsUrOAiet-3" target="9fxhhsQoqL0VDaIs-J9J-133">
          <mxGeometry relative="1" as="geometry">
            <Array as="points">
              <mxPoint x="1470" y="1140" />
              <mxPoint x="2170" y="1140" />
            </Array>
          </mxGeometry>
        </mxCell>
        <mxCell id="B480e4J5-RVbsUrOAiet-3" value="Inhibition" style="rounded=0;whiteSpace=wrap;html=1;" vertex="1" parent="1">
          <mxGeometry x="1410" y="1070" width="120" height="60" as="geometry" />
        </mxCell>
        <mxCell id="B480e4J5-RVbsUrOAiet-6" value="&quot;Comparison of the processing of motor imagery and real action&quot;&amp;nbsp;" style="rounded=0;whiteSpace=wrap;html=1;fillColor=default;" vertex="1" parent="1">
          <mxGeometry x="3000" y="-669" width="470" height="60" as="geometry" />
        </mxCell>
        <mxCell id="B480e4J5-RVbsUrOAiet-9" value="Inhibition" style="rounded=0;whiteSpace=wrap;html=1;" vertex="1" parent="1">
          <mxGeometry x="2270" y="395" width="120" height="60" as="geometry" />
        </mxCell>
        <mxCell id="B480e4J5-RVbsUrOAiet-17" value="&lt;font style=&quot;font-size: 18px;&quot;&gt;&quot;Definitions of the constructs used&quot;&lt;/font&gt;" style="rounded=0;whiteSpace=wrap;html=1;" vertex="1" parent="1">
          <mxGeometry x="1710" y="30" width="199" height="125" as="geometry" />
        </mxCell>
        <mxCell id="B480e4J5-RVbsUrOAiet-18" value="n" style="edgeStyle=orthogonalEdgeStyle;rounded=0;orthogonalLoop=1;jettySize=auto;html=1;exitX=1.002;exitY=0.537;exitDx=0;exitDy=0;entryX=0;entryY=0.5;entryDx=0;entryDy=0;exitPerimeter=0;" edge="1" parent="1" source="B480e4J5-RVbsUrOAiet-15" target="B480e4J5-RVbsUrOAiet-17">
          <mxGeometry relative="1" as="geometry" />
        </mxCell>
        <mxCell id="B480e4J5-RVbsUrOAiet-19" value="" style="rounded=0;whiteSpace=wrap;html=1;fillColor=none;" vertex="1" parent="1">
          <mxGeometry x="1191" y="-470" width="1329" height="1060" as="geometry" />
        </mxCell>
        <mxCell id="B480e4J5-RVbsUrOAiet-20" value="&lt;font style=&quot;font-size: 48px;&quot;&gt;Figure 1&lt;/font&gt;" style="text;html=1;align=center;verticalAlign=middle;whiteSpace=wrap;rounded=0;" vertex="1" parent="1">
          <mxGeometry x="1189" y="-660" width="260" height="30" as="geometry" />
        </mxCell>
        <mxCell id="B480e4J5-RVbsUrOAiet-21" value="&lt;font style=&quot;font-size: 36px;&quot;&gt;&lt;i&gt;Concepts of the motor-simulation theory portraited in a VAST diagramm&lt;/i&gt;&lt;/font&gt;" style="text;html=1;align=center;verticalAlign=middle;whiteSpace=wrap;rounded=0;" vertex="1" parent="1">
          <mxGeometry x="1181" y="-570" width="1229" height="30" as="geometry" />
        </mxCell>
        <mxCell id="YP8uZfziMQtiDSNVp7Nh-3" value="&lt;font style=&quot;font-size: 48px;&quot;&gt;Figure 2&lt;/font&gt;" style="text;html=1;align=center;verticalAlign=middle;whiteSpace=wrap;rounded=0;" vertex="1" parent="1">
          <mxGeometry x="1333.5" y="680" width="260" height="30" as="geometry" />
        </mxCell>
        <mxCell id="YP8uZfziMQtiDSNVp7Nh-4" value="&lt;font style=&quot;font-size: 36px;&quot;&gt;&lt;i&gt;The process of mental practice on performance through MST´s postulates&lt;/i&gt;&lt;/font&gt;" style="text;html=1;align=center;verticalAlign=middle;whiteSpace=wrap;rounded=0;" vertex="1" parent="1">
          <mxGeometry x="1350" y="770" width="1229" height="30" as="geometry" />
        </mxCell>
        <mxCell id="-lTzJfZ4PyQF_MlP5q2c-1" value="&quot;Formal model of real practices effect on motor performance&quot;" style="rounded=0;whiteSpace=wrap;html=1;" vertex="1" parent="1">
          <mxGeometry x="1785" y="1660" width="190" height="120" as="geometry" />
        </mxCell>
      </root>
    </mxGraphModel>
  </diagram>
</mxfile>
